<?xml version="1.0" encoding="UTF-8" standalone="no"?>
<svg
   xmlns:dc="http://purl.org/dc/elements/1.1/"
   xmlns:cc="http://creativecommons.org/ns#"
   xmlns:rdf="http://www.w3.org/1999/02/22-rdf-syntax-ns#"
   xmlns:svg="http://www.w3.org/2000/svg"
   xmlns="http://www.w3.org/2000/svg"
   xmlns:sodipodi="http://sodipodi.sourceforge.net/DTD/sodipodi-0.dtd"
   xmlns:inkscape="http://www.inkscape.org/namespaces/inkscape"
   version="1.1"
   id="svg10"
   width="511.36591"
   height="512.29492"
   viewBox="0 0 511.36591 512.29492"
   sodipodi:docname="moodmeter.svg"
   inkscape:version="1.0.1 (c497b03c, 2020-09-10)">
  <metadata
     id="metadata16">
    <rdf:RDF>
      <cc:Work
         rdf:about="">
        <dc:format>image/svg+xml</dc:format>
        <dc:type
           rdf:resource="http://purl.org/dc/dcmitype/StillImage" />
        <dc:title></dc:title>
      </cc:Work>
    </rdf:RDF>
  </metadata>
  <defs
     id="defs14" />
  <sodipodi:namedview
     pagecolor="#ffffff"
     bordercolor="#666666"
     borderopacity="1"
     objecttolerance="10"
     gridtolerance="10"
     guidetolerance="10"
     inkscape:pageopacity="0"
     inkscape:pageshadow="2"
     inkscape:window-width="738"
     inkscape:window-height="480"
     id="namedview12"
     showgrid="false"
     inkscape:zoom="0.53125"
     inkscape:cx="240.86735"
     inkscape:cy="259.76471"
     inkscape:window-x="0"
     inkscape:window-y="23"
     inkscape:window-maximized="0"
     inkscape:current-layer="g18" />
  <g
     inkscape:groupmode="layer"
     inkscape:label="Image"
     id="g18"
     transform="translate(-15.132649,3.7647063)">
    <path
       style="fill:#ffffff"
       d="M 286.05882,282.38275 V 56.235295 l 12.75,0.0107 c 7.0125,0.006 18.83135,0.65619 26.26412,1.44511 94.27767,10.00677 172.9339,78.710815 195.34049,170.624525 4.65542,19.09694 6.08511,31.76525 6.08511,53.91965 0,36.65795 -6.51062,65.73939 -21.82784,97.5 -22.44466,46.53951 -57.44883,81.96625 -103.65571,104.90702 -30.7124,15.24808 -59.05515,22.10986 -96.20617,23.29152 l -18.75,0.59638 z m 54,191.85841 C 400.28379,461.94778 451.48526,421.76465 478.04021,365.95281 518.12226,281.71037 492.83157,180.88352 417.53305,124.72785 390.8666,104.84071 353.33157,90.095165 322.80882,87.515665 l -6.75,-0.57044 V 204.09025 321.23529 h 37.5 37.5 v 15 15 h -37.5 -37.5 v 63.14504 63.14503 l 6.75,-0.57044 c 3.7125,-0.31375 11.475,-1.53494 17.25,-2.71376 z M 380.32337,289.6937 c -16.72319,-4.50376 -29.66125,-17.87844 -33.13929,-34.25763 -1.48436,-6.99032 -1.49653,-56.32925 -0.0156,-63.40156 4.81107,-22.97635 28.07123,-38.919 51.03669,-34.98086 18.17809,3.11719 32.94979,17.18605 36.72843,34.98086 0.67142,3.16211 1.12522,15.94665 1.12522,31.70078 0,15.75413 -0.4538,28.53867 -1.12526,31.70078 -5.21509,24.55956 -30.86772,40.65176 -54.61019,34.25763 z m 17.76183,-30.47187 c 2.54028,-1.29595 4.66421,-3.41988 5.96016,-5.96016 1.86297,-3.65171 2.01346,-5.86302 2.01346,-29.58541 0,-28.40121 -0.37257,-30.43031 -6.37329,-34.71066 -4.36381,-3.11274 -12.88961,-3.11274 -17.25342,0 -6.17616,4.40549 -6.4981,6.28511 -6.16921,36.01759 0.28523,25.78574 0.37605,26.86443 2.5141,29.86179 4.43295,6.21457 12.23793,7.98384 19.3082,4.37685 z M 223.55882,447.55002 C 171.06861,442.96936 123.83707,421.93736 85.786924,386.20078 35.967334,339.41039 9.6368341,269.6871 16.096014,201.65897 21.267684,147.19086 46.251644,95.640405 85.463224,58.530655 128.22609,18.059975 183.67445,-3.7647063 243.7325,-3.7647063 h 12.32632 v 225.9999963 226 l -14.25,-0.1681 c -7.8375,-0.0925 -16.05,-0.32519 -18.25,-0.51717 z m 2.5,-45.31473 v -15 h -2.44924 c -4.54631,0 -23.98482,-4.1475 -33.55076,-7.15857 -12.91747,-4.06602 -33.49175,-14.38987 -45,-22.58028 -12.17138,-8.66237 -30.59878,-27.08977 -39.26115,-39.26115 -20.058866,-28.18447 -30.705026,-62.5681 -30.730646,-99.25 l -0.008,-11.75 h 75.499996 75.5 v -90 -89.999995 h -3.82511 c -4.92558,0 -23.52507,3.37231 -33.17489,6.015 -53.90611,14.76268 -100.111606,53.51936 -124.566416,104.484995 -46.20329,96.29106 -6.5683,211.81934 89.119126,259.76493 20.56365,10.30372 51.64986,19.3227 67.69729,19.64089 l 4.75,0.0942 z m -120,-240 v -15 h 45 45 v 15 15 h -45 -45 z m 120,165.5 c 0,-34.22331 1.74198,-30.75161 -13.74635,-27.39593 -19.77535,4.28449 -39.66877,13.5686 -55.13855,25.73275 l -2.3849,1.87529 9.94078,6.61785 c 11.30286,7.52461 23.10959,13.30568 34.99359,17.1343 8.14933,2.62544 19.82744,5.26395 24.08543,5.44177 l 2.25,0.094 z m -70.5,-36.71695 c 8.37902,-4.97507 18.74471,-10.00985 27.10544,-13.16554 9.41393,-3.5532 28.23177,-8.24454 36.64456,-9.13558 l 6.75,-0.71492 v -15.38351 -15.3835 h -60 -60 l 0.009,2.25 c 0.0203,5.0338 5.08287,24.12596 8.77535,33.09377 4.25003,10.32189 10.26222,21.34422 15.74813,28.87152 l 3.43651,4.71528 7.76547,-5.7925 c 4.27098,-3.18587 10.46544,-7.39563 13.76544,-9.35502 z"
       id="path22" />
  </g>
</svg>
